<?xml version="1.0" encoding="utf-8"?>
<!-- Generator: Adobe Illustrator 23.0.3, SVG Export Plug-In . SVG Version: 6.00 Build 0)  -->
<svg version="1.1" id="Layer_1" xmlns="http://www.w3.org/2000/svg" xmlns:xlink="http://www.w3.org/1999/xlink" x="0px" y="0px"
	 viewBox="0 0 88.2 88.2" style="enable-background:new 0 0 88.2 88.2;" xml:space="preserve">
<style type="text/css">
	.st0{fill:#FFFFFF;}
</style>
<circle cx="44.1" cy="44.1" r="41.2"/>
<path class="st0" d="M58.7,43.6L43.2,28.1c-0.1-0.1-0.3-0.2-0.5-0.2H30c-0.4,0-0.7,0.3-0.7,0.7c0,0.2,0.1,0.4,0.2,0.5l15,15l-15,15
	c-0.3,0.3-0.3,0.7,0,1c0.1,0.1,0.3,0.2,0.5,0.2h12.7c0.2,0,0.4-0.1,0.5-0.2l15.5-15.5C59,44.3,59,43.9,58.7,43.6L58.7,43.6z"/>
</svg>
